<svg width="1280" height="800" viewBox="0 0 1280 800" fill="none" xmlns="http://www.w3.org/2000/svg">
  <rect width="1280" height="800" rx="28" fill="#0B0B12"/>
  <rect x="40" y="40" width="1200" height="720" rx="24" fill="#111827" stroke="#334155"/>
  <text x="82" y="106" fill="#F8FAFC" font-family="Arial" font-size="34" font-weight="700">Alerts</text>
  <text x="82" y="142" fill="#94A3B8" font-family="Arial" font-size="18">Notify the team when Stripe-backed health scores drop</text>
  <rect x="82" y="194" width="520" height="420" rx="24" fill="#0F172A" stroke="#334155"/>
  <text x="122" y="254" fill="#E0E7FF" font-family="Arial" font-size="26" font-weight="700">New alert rule</text>
  <text x="122" y="316" fill="#94A3B8" font-family="Arial" font-size="18">Condition</text>
  <rect x="122" y="338" width="400" height="54" rx="14" fill="#1E293B"/>
  <text x="146" y="373" fill="#F8FAFC" font-family="Arial" font-size="18">Health score drops below 50</text>
  <text x="122" y="446" fill="#94A3B8" font-family="Arial" font-size="18">Channel</text>
  <rect x="122" y="468" width="400" height="54" rx="14" fill="#1E293B"/>
  <text x="146" y="503" fill="#F8FAFC" font-family="Arial" font-size="18">Email · success@acme.com</text>
  <rect x="122" y="554" width="170" height="52" rx="14" fill="#2563EB"/>
  <text x="163" y="588" fill="#FFFFFF" font-family="Arial" font-size="18" font-weight="700">Save rule</text>
  <rect x="646" y="194" width="512" height="420" rx="24" fill="#0F172A" stroke="#334155"/>
  <text x="686" y="254" fill="#E0E7FF" font-family="Arial" font-size="26" font-weight="700">Recent alert history</text>
  <circle cx="714" cy="330" r="12" fill="#FB7185"/>
  <text x="744" y="337" fill="#F8FAFC" font-family="Arial" font-size="19">Acme Ops entered red risk</text>
  <text x="744" y="365" fill="#94A3B8" font-family="Arial" font-size="16">Email sent 4 minutes ago</text>
  <circle cx="714" cy="430" r="12" fill="#FBBF24"/>
  <text x="744" y="437" fill="#F8FAFC" font-family="Arial" font-size="19">Orbit Analytics score dropped 12 pts</text>
  <text x="744" y="465" fill="#94A3B8" font-family="Arial" font-size="16">Email sent 2 hours ago</text>
  <circle cx="714" cy="530" r="12" fill="#34D399"/>
  <text x="744" y="537" fill="#F8FAFC" font-family="Arial" font-size="19">Northwind recovered to green</text>
  <text x="744" y="565" fill="#94A3B8" font-family="Arial" font-size="16">Logged yesterday</text>
</svg>
