<svg width="1280" height="800" viewBox="0 0 1280 800" fill="none" xmlns="http://www.w3.org/2000/svg">
  <rect width="1280" height="800" rx="28" fill="#0B0B12"/>
  <rect x="40" y="40" width="1200" height="720" rx="24" fill="#111827" stroke="#334155"/>
  <text x="82" y="106" fill="#F8FAFC" font-family="Arial" font-size="34" font-weight="700">Customer Detail</text>
  <text x="82" y="142" fill="#94A3B8" font-family="Arial" font-size="18">Acme Ops · Stripe customer cus_4Jz</text>
  <circle cx="214" cy="302" r="116" fill="#1E293B" stroke="#334155" stroke-width="8"/>
  <path d="M214 186A116 116 0 0 1 322 345" stroke="#FB7185" stroke-width="18" stroke-linecap="round"/>
  <text x="174" y="316" fill="#F8FAFC" font-family="Arial" font-size="54" font-weight="700">37</text>
  <text x="162" y="360" fill="#FB7185" font-family="Arial" font-size="20" font-weight="700">Critical</text>
  <rect x="394" y="190" width="360" height="230" rx="22" fill="#0F172A" stroke="#334155"/>
  <text x="426" y="242" fill="#E0E7FF" font-family="Arial" font-size="24" font-weight="700">Signal breakdown</text>
  <text x="426" y="300" fill="#CBD5E1" font-family="Arial" font-size="18">Payment recency</text>
  <rect x="426" y="318" width="260" height="14" rx="7" fill="#1E293B"/>
  <rect x="426" y="318" width="92" height="14" rx="7" fill="#FB7185"/>
  <text x="426" y="366" fill="#CBD5E1" font-family="Arial" font-size="18">Failed payments</text>
  <rect x="426" y="384" width="260" height="14" rx="7" fill="#1E293B"/>
  <rect x="426" y="384" width="58" height="14" rx="7" fill="#FB7185"/>
  <rect x="800" y="190" width="360" height="230" rx="22" fill="#0F172A" stroke="#334155"/>
  <text x="832" y="242" fill="#E0E7FF" font-family="Arial" font-size="24" font-weight="700">Subscription</text>
  <text x="832" y="298" fill="#F8FAFC" font-family="Arial" font-size="22">Growth plan</text>
  <text x="832" y="338" fill="#CBD5E1" font-family="Arial" font-size="18">$1,250 MRR · past_due</text>
  <text x="832" y="378" fill="#FBBF24" font-family="Arial" font-size="18">Renews in 11 days</text>
  <rect x="82" y="474" width="1078" height="190" rx="22" fill="#0F172A" stroke="#334155"/>
  <text x="112" y="528" fill="#E0E7FF" font-family="Arial" font-size="24" font-weight="700">Recent timeline</text>
  <circle cx="132" cy="584" r="10" fill="#FB7185"/>
  <text x="160" y="591" fill="#CBD5E1" font-family="Arial" font-size="18">Invoice payment failed · score recalculated</text>
  <circle cx="132" cy="628" r="10" fill="#FBBF24"/>
  <text x="160" y="635" fill="#CBD5E1" font-family="Arial" font-size="18">Subscription moved to past_due</text>
</svg>
